HIERARCHY
ROOT Hips
{
 OFFSET 0.000000 0.000000 0.000000
 CHANNELS 6 Xposition Yposition Zposition Yrotation Xrotation Zrotation
 JOINT Chest
 {
  OFFSET 0.000000 9.585900 0.002600
  CHANNELS 3 Yrotation Xrotation Zrotation
  JOINT Chest2
  {
   OFFSET 0.000000 9.601200 -0.005300
   CHANNELS 3 Yrotation Xrotation Zrotation
   JOINT Chest3
   {
    OFFSET 0.000000 9.561800 0.000000
    CHANNELS 3 Yrotation Xrotation Zrotation
    JOINT Chest4
    {
     OFFSET 0.000000 9.552100 0.000000
     CHANNELS 3 Yrotation Xrotation Zrotation
     JOINT Neck
     {
      OFFSET 0.000000 14.453000 0.000000
      CHANNELS 3 Yrotation Xrotation Zrotation
      JOINT Head
      {
       OFFSET 0.000000 8.936500 -0.011300
       CHANNELS 3 Yrotation Xrotation Zrotation
       End Site
       {
        OFFSET 0.000000 17.073600 -0.006000
       }
      }
     }
     JOINT RightCollar
     {
      OFFSET -2.921100 9.558500 0.000000
      CHANNELS 3 Yrotation Xrotation Zrotation
      JOINT RightShoulder
      {
       OFFSET -13.519700 0.000000 0.000000
       CHANNELS 3 Yrotation Xrotation Zrotation
       JOINT RightElbow
       {
        OFFSET 0.000000 -29.696600 0.000000
        CHANNELS 3 Yrotation Xrotation Zrotation
        JOINT RightWrist
        {
         OFFSET 0.000000 -24.004700 0.000000
         CHANNELS 3 Yrotation Xrotation Zrotation
         End Site
         {
          OFFSET 0.000000 -17.728500 0.000000
         }
        }
       }
      }
     }
     JOINT LeftCollar
     {
      OFFSET 2.921100 9.558500 0.000000
      CHANNELS 3 Yrotation Xrotation Zrotation
      JOINT LeftShoulder
      {
       OFFSET 13.519700 0.000000 0.000000
       CHANNELS 3 Yrotation Xrotation Zrotation
       JOINT LeftElbow
       {
        OFFSET 0.000000 -29.696600 0.000000
        CHANNELS 3 Yrotation Xrotation Zrotation
        JOINT LeftWrist
        {
         OFFSET 0.000000 -24.004700 0.000000
         CHANNELS 3 Yrotation Xrotation Zrotation
         End Site
         {
          OFFSET 0.000000 -17.728500 0.000000
         }
        }
       }
      }
     }
    }
   }
  }
 }
 JOINT RightHip
 {
  OFFSET -7.771700 -0.012900 -0.001300
  CHANNELS 3 Yrotation Xrotation Zrotation
  JOINT RightKnee
  {
   OFFSET 0.000000 -40.869800 0.001200
   CHANNELS 3 Yrotation Xrotation Zrotation
   JOINT RightAnkle
   {
    OFFSET 0.000000 -39.717900 0.002100
    CHANNELS 3 Yrotation Xrotation Zrotation
    JOINT RightToe
    {
     OFFSET 0.000000 -4.965400 11.033500
     CHANNELS 3 Yrotation Xrotation Zrotation
     End Site
     {
      OFFSET 0.000000 -1.423100 5.872300
     }
    }
   }
  }
 }
 JOINT LeftHip
 {
  OFFSET 7.771700 -0.012900 -0.001300
  CHANNELS 3 Yrotation Xrotation Zrotation
  JOINT LeftKnee
  {
   OFFSET 0.000000 -40.869800 0.001200
   CHANNELS 3 Yrotation Xrotation Zrotation
   JOINT LeftAnkle
   {
    OFFSET 0.000000 -39.717900 0.002100
    CHANNELS 3 Yrotation Xrotation Zrotation
    JOINT LeftToe
    {
     OFFSET 0.000000 -4.965400 11.033500
     CHANNELS 3 Yrotation Xrotation Zrotation
     End Site
     {
      OFFSET 0.000000 -1.423100 5.872300
     }
    }
   }
  }
 }
}
MOTION
Frames: 9
Frame Time: 0.008333
0.000000 85.388000 0.000000 0.000000 -5.767877 0.000000 0.000000 11.653817 0.000000 0.000000 -5.885947 0.000000 0.000000 -0.000000 0.000000 0.000000 -0.000000 0.000000 0.000000 12.528835 0.000000 0.000000 0.711642 0.000000 0.000000 -0.000000 0.000000 0.000000 0.000000 -90.000000 0.000000 -2.309062 0.000000 0.000000 2.309062 0.000000 0.000000 -0.000000 0.000000 0.000000 -0.000000 90.000000 0.000000 -2.309062 0.000000 0.000000 2.309062 0.000000 0.000000 8.520406 0.000000 0.000000 1.905762 0.000000 -0.000000 -4.658285 0.000000 0.000000 -0.000000 0.000000 0.000000 8.520406 0.000000 0.000000 1.905762 0.000000 -0.000000 -4.658285 0.000000 0.000000 -0.000000 0.000000
-54.340732 55.346819 47.600909 -178.996690 -30.915584 -11.501356 -3.283345 11.137314 4.496742 -1.790734 6.381345 1.815271 -2.254023 7.972761 2.211722 -1.855130 6.364865 1.791484 3.840257 28.086691 -0.144858 4.240804 5.370036 -1.022967 0.690278 1.102879 -5.221271 -14.068681 -8.775642 13.873699 -83.521756 -46.929731 83.308747 -0.084445 -8.307440 5.927078 -7.199440 2.430637 -3.853185 9.337865 -3.894826 -4.704281 117.024592 -62.620571 -114.183522 29.649012 4.282829 11.417454 -18.743779 -35.080449 7.185046 -15.799810 86.519041 -19.433449 1.556617 -17.110162 1.282022 -0.046991 0.502412 -0.041954 -15.376334 -47.089204 16.608818 171.296761 79.811562 166.377845 -1.530960 -15.841948 2.380167 -0.653276 -2.161952 -0.284184
-54.339400 55.347643 47.608830 -179.000644 -30.886236 -11.447749 -3.265085 11.112892 4.475189 -1.773029 6.377850 1.810079 -2.202057 7.976279 2.218181 -1.799067 6.372567 1.793756 3.861117 27.876708 -0.176116 4.299406 5.111588 -1.071393 0.614114 1.068925 -5.200821 -14.110461 -8.733426 13.808147 -83.128463 -48.239865 83.227678 0.040939 -8.337345 5.644016 -7.246757 2.361139 -3.862103 9.363445 -3.785368 -4.511576 117.325051 -63.411233 -114.317649 29.410491 4.456472 10.478361 -18.763090 -35.129674 7.141170 -15.516728 86.531297 -19.154058 1.572307 -17.110399 1.250315 -0.046566 0.502799 -0.040875 -15.374459 -47.114856 16.571734 171.276868 79.830689 166.337923 -1.558782 -15.855443 2.364575 -0.626864 -2.137531 -0.273168
-54.330094 55.351853 47.613108 -179.006603 -30.880640 -11.428825 -3.221937 11.108661 4.490275 -1.799205 6.372761 1.793511 -2.109259 7.983186 2.234501 -1.771974 6.372437 1.796464 3.913639 27.676102 -0.213605 4.362923 4.856592 -1.124857 0.520423 1.049162 -5.187913 -14.118617 -8.695511 13.722330 -82.713862 -49.668029 83.128438 0.194273 -8.390449 5.319595 -7.275897 2.294993 -3.876935 9.377350 -3.679914 -4.311778 117.677962 -64.294084 -114.444369 29.141104 4.603557 9.502057 -18.770574 -35.137789 7.127084 -15.404244 86.531224 -19.028152 1.586176 -17.108083 1.225177 -0.046445 0.501601 -0.044067 -15.378303 -47.117949 16.562662 171.242398 79.841682 166.302953 -1.558354 -15.841029 2.353096 -0.624395 -2.143897 -0.278146
-54.316102 55.357796 47.613795 -179.021540 -30.891917 -11.421395 -3.118805 11.123953 4.546779 -1.751199 6.371411 1.798853 -2.130749 7.974773 2.226726 -1.744107 6.371255 1.799697 3.969575 27.478811 -0.253992 4.430967 4.607017 -1.182318 0.418853 1.029438 -5.173838 -14.145417 -8.672184 13.637570 -82.249849 -51.219030 82.985501 0.378669 -8.452534 4.974961 -7.314486 2.224195 -3.890024 9.371830 -3.585466 -4.109378 118.099681 -65.275526 -114.573978 28.827635 4.722582 8.499509 -18.773281 -35.125112 7.098549 -14.918188 86.535103 -18.517454 1.694127 -17.101245 1.162642 -0.094569 0.493201 -0.040584 -15.388243 -47.102716 16.573051 171.208064 79.849390 166.265949 -1.528191 -15.805938 2.339877 -0.649298 -2.173907 -0.289737
-54.305063 55.360715 47.614769 -179.021894 -30.879269 -11.391232 -3.050374 11.123439 4.561886 -1.716515 6.368645 1.803424 -2.117240 7.968811 2.227665 -1.716542 6.368698 1.803369 4.029979 27.290156 -0.296284 4.504507 4.369680 -1.242965 0.424767 1.018540 -5.129140 -14.283915 -8.661604 13.516179 -81.772835 -52.845757 82.832846 0.584898 -8.503999 4.642293 -7.356997 2.145246 -3.900870 9.348772 -3.505951 -3.906217 118.591161 -66.362475 -114.717271 28.468781 4.816296 7.471160 -18.832395 -35.140827 7.090585 -14.602427 86.547610 -18.232963 1.754320 -17.103079 1.120582 -0.080721 0.488352 -0.041227 -15.395262 -47.113784 16.555589 171.198688 79.857398 166.243285 -1.511831 -15.791246 2.334597 -0.661491 -2.184607 -0.298330
-54.289860 55.363323 47.613495 -179.016378 -30.864040 -11.378330 -2.991295 11.132104 4.586799 -1.689935 6.365104 1.807832 -2.083985 7.964249 2.233648 -1.689957 6.365070 1.807790 4.095311 27.115358 -0.340245 4.584150 4.151170 -1.306487 0.392084 1.000461 -5.095342 -14.380438 -8.652553 13.395377 -81.295998 -54.499523 82.685549 0.801495 -8.532885 4.357715 -7.394727 2.057641 -3.912578 9.314869 -3.450225 -3.703223 119.148000 -67.563867 -114.882381 28.075023 4.879182 6.406520 -18.858994 -35.152803 7.099477 -14.748655 86.551549 -18.374655 1.726337 -17.108912 1.109143 -0.007927 0.486592 -0.039718 -15.408438 -47.127317 16.549412 171.160350 79.859194 166.211074 -1.509013 -15.780600 2.324263 -0.664308 -2.194661 -0.307130
-54.271943 55.365273 47.609867 -179.011713 -30.846564 -11.371606 -2.964267 11.129767 4.599519 -1.625444 6.382423 1.827760 -2.049839 7.959103 2.240518 -1.662693 6.360992 1.812939 4.162965 26.955411 -0.383297 4.666398 3.952335 -1.369419 0.339381 0.974150 -5.066897 -14.444929 -8.641606 13.269720 -80.822032 -56.136576 82.550389 1.022554 -8.537222 4.133901 -7.430406 1.965856 -3.924822 9.278992 -3.427537 -3.503460 119.773711 -68.885895 -115.081468 27.650706 4.907838 5.293945 -18.883354 -35.164994 7.114167 -14.932687 86.557533 -18.551050 1.708117 -17.115725 1.096930 -0.045509 0.481252 -0.041850 -15.429704 -47.140275 16.547105 171.106588 79.857031 166.176723 -1.509225 -15.781268 2.291584 -0.660485 -2.197224 -0.305353
-54.257914 55.364608 47.605014 -179.001400 -30.814525 -11.335884 -2.890221 11.143646 4.617055 -1.614559 6.367412 1.826266 -2.013129 7.952481 2.248692 -1.633461 6.355818 1.819054 4.230878 26.807625 -0.423291 4.748418 3.769470 -1.429028 0.289815 0.946209 -5.033660 -14.495006 -8.630063 13.130465 -80.348837 -57.739365 82.421717 1.239639 -8.509833 3.949222 -7.470318 1.879075 -3.936279 9.246323 -3.443352 -3.311266 120.481228 -70.332190 -115.332258 27.197388 4.894843 4.135802 -18.895689 -35.207242 7.084109 -14.978511 86.581188 -18.585299 1.706684 -17.130016 1.077385 -0.012785 0.477224 -0.042268 -15.496702 -47.160973 16.558300 171.129195 79.857294 166.151636 -1.487778 -15.778214 2.282649 -0.679122 -2.201670 -0.309928
